<svg xmlns="http://www.w3.org/2000/svg" width="30" height="21" viewBox="0 0 30 21">
  <path id="Icon_awesome-money-check" data-name="Icon awesome-money-check" d="M0,21a1.5,1.5,0,0,0,1.5,1.5h27A1.5,1.5,0,0,0,30,21V6H0Zm21-9.75a.75.75,0,0,1,.75-.75h4.5a.75.75,0,0,1,.75.75v1.5a.75.75,0,0,1-.75.75h-4.5a.75.75,0,0,1-.75-.75Zm0,5.625a.375.375,0,0,1,.375-.375h5.25a.375.375,0,0,1,.375.375v.75a.375.375,0,0,1-.375.375h-5.25A.375.375,0,0,1,21,17.625Zm-18-4.5A.375.375,0,0,1,3.375,12h14.25a.375.375,0,0,1,.375.375v.75a.375.375,0,0,1-.375.375H3.375A.375.375,0,0,1,3,13.125Zm0,4.5a.375.375,0,0,1,.375-.375h8.25a.375.375,0,0,1,.375.375v.75a.375.375,0,0,1-.375.375H3.375A.375.375,0,0,1,3,17.625ZM29.25,1.5H.75A.75.75,0,0,0,0,2.25V4.5H30V2.25A.75.75,0,0,0,29.25,1.5Z" transform="translate(0 -1.5)" fill="#4bb3cc"/>
</svg>
