<svg id="clock_icon" data-name="clock icon" xmlns="http://www.w3.org/2000/svg" width="22.653" height="22.653" viewBox="0 0 22.653 22.653">
  <path id="clock_path_564" data-name="clock path 564" d="M11.326,0A11.326,11.326,0,1,0,22.653,11.326,11.339,11.339,0,0,0,11.326,0Zm0,19.956a8.63,8.63,0,1,1,8.63-8.63A8.639,8.639,0,0,1,11.326,19.956Z" fill="#4bb3cc"/>
  <path id="clock_path_565" data-name="clock path 565" d="M159,115.758a1.026,1.026,0,0,0-1.026,1.026v4.646l-3.276,3.276a1.026,1.026,0,1,0,1.451,1.451l3.877-3.877v-5.5A1.026,1.026,0,0,0,159,115.758Z" transform="translate(-147.565 -110.636)" fill="#4bb3cc"/>
</svg>
