<svg xmlns="http://www.w3.org/2000/svg" width="30" height="18" viewBox="0 0 30 18">
  <path id="Icon_awesome-money-bill-alt" data-name="Icon awesome-money-bill-alt" d="M16.5,13.5h-.75V9.375A.375.375,0,0,0,15.375,9h-.637a1.123,1.123,0,0,0-.624.189l-.719.479a.375.375,0,0,0-.1.52l.416.624a.375.375,0,0,0,.52.1l.022-.015v2.6H13.5a.375.375,0,0,0-.375.375v.75A.375.375,0,0,0,13.5,15h3a.375.375,0,0,0,.375-.375v-.75A.375.375,0,0,0,16.5,13.5ZM28.5,3H1.5A1.5,1.5,0,0,0,0,4.5v15A1.5,1.5,0,0,0,1.5,21h27A1.5,1.5,0,0,0,30,19.5V4.5A1.5,1.5,0,0,0,28.5,3ZM2.25,18.75v-3a3,3,0,0,1,3,3Zm0-10.5v-3h3A3,3,0,0,1,2.25,8.25Zm12.75,9c-2.485,0-4.5-2.351-4.5-5.25S12.515,6.75,15,6.75,19.5,9.1,19.5,12,17.484,17.25,15,17.25Zm12.75,1.5h-3a3,3,0,0,1,3-3Zm0-10.5a3,3,0,0,1-3-3h3Z" transform="translate(0 -3)" fill="#4bb3cc"/>
</svg>
