<svg xmlns="http://www.w3.org/2000/svg" width="40" height="40" viewBox="0 0 40 40">
  <g id="upload_photo" data-name="upload photo" transform="translate(0.025 0.375)">
    <circle id="Ellipse_7" data-name="Ellipse 7" cx="20" cy="20" r="20" transform="translate(-0.025 -0.375)" fill="#003b6b"/>
    <g id="camera_icon" data-name="camera icon" transform="translate(10.452 12.502)">
      <path id="Path_588" data-name="Path 588" d="M196.123,224.828a2.3,2.3,0,1,0,2.279,2.3A2.289,2.289,0,0,0,196.123,224.828Z" transform="translate(-186.738 -218.672)" fill="#fff"/>
      <path id="Path_589" data-name="Path 589" d="M17.551,59.781H15.4a1.217,1.217,0,0,1-1.111-.725l-.643-1.441a1.219,1.219,0,0,0-1.111-.725h-6.3a1.22,1.22,0,0,0-1.112.725l-.643,1.441a1.218,1.218,0,0,1-1.111.725H1.218A1.224,1.224,0,0,0,0,61.01v9.25a1.224,1.224,0,0,0,1.218,1.229H17.551a1.224,1.224,0,0,0,1.218-1.229V61.01A1.224,1.224,0,0,0,17.551,59.781ZM9.385,69.609a4.264,4.264,0,1,1,4.227-4.263A4.245,4.245,0,0,1,9.385,69.609Z" transform="translate(0 -56.89)" fill="#fff"/>
    </g>
  </g>
</svg>
