<svg xmlns="http://www.w3.org/2000/svg" width="26.621" height="19.907" viewBox="0 0 26.621 19.907">
  <g id="school_icon" data-name="school icon" transform="translate(0)">
    <path id="Path_2995" data-name="Path 2995" d="M524.474,1005.329a29.1,29.1,0,0,1-.022,2.989,3.514,3.514,0,0,0,.881,2.611H522.59c.113-.3.135-.649.31-.759.467-.294.431-.7.43-1.138-.005-1.283.013-2.566-.01-3.849a.729.729,0,0,1,.512-.784c4.01-1.78,8.01-3.583,12.022-5.361a1.094,1.094,0,0,1,.79-.046c4.149,1.84,8.287,3.706,12.537,5.615-.25.177-.426.311-.613.432-1.5.975-3,1.958-4.513,2.912a.9.9,0,0,0-.465.846,32.015,32.015,0,0,1-.2,4.026,7.2,7.2,0,0,1-14.267-.476c-.117-1.185-.081-2.384-.13-3.577-.008-.2-.03-.5-.159-.59C527.448,1007.247,526.038,1006.345,524.474,1005.329Zm7.705,5.825c-.3.041-.8.128-1.295.17-.528.044-.61.318-.561.79a6,6,0,0,0,11.954-.129c.005-.4-.108-.583-.512-.659a7.356,7.356,0,0,0-5.134.778.806.806,0,0,1-.681,0A7.52,7.52,0,0,0,532.179,1011.154Z" transform="translate(-522.559 -998.938)" fill="#83c3d5"/>
    <path id="Path_2996" data-name="Path 2996" d="M522.583,1022.911h2.527c-.051.756.368,1.637-.363,2.12a1.957,1.957,0,0,1-1.7.041C522.223,1024.613,522.651,1023.7,522.583,1022.911Z" transform="translate(-522.532 -1010.211)" fill="#83c3d5"/>
  </g>
</svg>
