<svg xmlns="http://www.w3.org/2000/svg" width="22.298" height="26.007" viewBox="0 0 22.298 26.007">
  <g id="bell_icon" data-name="bell icon" transform="translate(-0.04 0.014)">
    <path id="bell_path" data-name="bell path" d="M15.142,28.7a2.976,2.976,0,0,1-1.748-1.031,9.86,9.86,0,0,1-.574-1.031l5.2-.493a2.178,2.178,0,0,1-1.147,2.089,8.193,8.193,0,0,1-1.12.466Z" transform="translate(-1.325 -2.712)" fill="#f2d60f"/>
    <path id="bell_path_1" data-name="bell path 1" d="M9.38,3.163C8.968,1.791,9.156.976,10.025.348a2.071,2.071,0,0,1,2.34,0c.843.618,1.013,1.4.592,2.815A7.234,7.234,0,0,1,16.21,5.045a8.775,8.775,0,0,1,2.465,5.593,14.978,14.978,0,0,0,3.245,8.067c.6.762.592,1.237-.278,1.73a12.549,12.549,0,0,1-2.958,1.282,28.9,28.9,0,0,1-14.96,0,18.537,18.537,0,0,1-2.689-1.067,2.411,2.411,0,0,1-.69-.52.78.78,0,0,1-.072-1.174,15.57,15.57,0,0,0,3.361-7.682A20.177,20.177,0,0,1,4.02,8.72,7.628,7.628,0,0,1,9.255,3.234ZM11.8,2.2V1.953c-.206-.134-.4-.359-.636-.394a.421.421,0,0,0-.511.52.726.726,0,0,0,.5.493C11.361,2.589,11.585,2.338,11.8,2.2Z" fill="#f2d60f"/>
  </g>
</svg>
