<svg xmlns="http://www.w3.org/2000/svg" width="31.115" height="47.5" viewBox="0 0 31.115 47.5">
  <g id="Group_158" data-name="Group 158" transform="translate(-271.721 -402.77)">
    <g id="Group_62" data-name="Group 62" transform="translate(271.721 402.77)">
      <path id="Path_9148" data-name="Path 9148" d="M145.011,782.738h1.521c1.467,0,1.422.005,1.653,1.488.047.3.524.613.87.775.952.445,1.957.776,2.906,1.226.607.288.56.747.1,1.191a10.982,10.982,0,0,0-.818.84c-.414.493-.8.406-1.395.226a14.49,14.49,0,0,0-3.909-.739,2.911,2.911,0,0,0-2,1.12c-.753.988-.054,2.264,1.292,2.514,1.15.214,2.325.28,3.485.445,3.012.428,4.54,1.8,4.691,4.183.166,2.616-1.292,4.528-4.081,5.345-.34.1-.687.172-1.157.287v2.356h-2.915c-.055-.09-.116-.146-.122-.208-.187-1.994-.214-1.911-2.089-2.52a13.22,13.22,0,0,1-2.88-1.556c-.167-.106-.178-.667-.069-.942.122-.306.487-.506.7-.785.62-.8,1.177-.824,2.05-.21a6.367,6.367,0,0,0,5.908.553,1.82,1.82,0,0,0-.331-3.521c-1.4-.216-2.826-.292-4.223-.531-2.223-.38-3.578-1.658-3.808-3.456a4.7,4.7,0,0,1,2.824-5.313C144.527,785,145.571,784.579,145.011,782.738Z" transform="translate(-131.168 -777.809)" fill="#83c3d5"/>
      <path id="Path_9149" data-name="Path 9149" d="M143.92,774.683a15.558,15.558,0,1,0,0,22A15.509,15.509,0,0,0,143.92,774.683ZM142.2,794.966a13.126,13.126,0,1,1,0-18.563h0a13.127,13.127,0,0,1,0,18.564Z" transform="translate(-117.362 -770.127)" fill="#83c3d5"/>
    </g>
    <text id="費用" transform="translate(277.278 448.27)" fill="#83c3d5" font-size="10" font-family="GenSenRoundedTW-R, GenSenRounded TW"><tspan x="0" y="0">費用</tspan></text>
  </g>
</svg>
