<svg id="搜尋_2" data-name="搜尋 2" xmlns="http://www.w3.org/2000/svg" width="27.026" height="26.179" viewBox="0 0 27.026 26.179">
  <g id="Group_51" data-name="Group 51" transform="translate(0 14.512)">
    <g id="Group_50" data-name="Group 50" transform="translate(0 0)">
      <g id="Group_49" data-name="Group 49">
        <path id="Rectangle_71" data-name="Rectangle 71" d="M2.741,0h5.84a2.741,2.741,0,0,1,2.741,2.741v0A2.741,2.741,0,0,1,8.582,5.483H2.741A2.741,2.741,0,0,1,0,2.741v0A2.741,2.741,0,0,1,2.741,0Z" transform="matrix(0.741, -0.672, 0.672, 0.741, 0, 7.606)" fill="#003b6b"/>
      </g>
    </g>
  </g>
  <g id="Group_52" data-name="Group 52" transform="translate(8.332)">
    <path id="Path_9144" data-name="Path 9144" d="M1235.68,334.662a9.327,9.327,0,1,1-8.83,6.28,9.34,9.34,0,0,1,8.83-6.28m0,2.529a6.815,6.815,0,0,0-6.436,4.578,6.812,6.812,0,0,0,6.438,9.024,6.815,6.815,0,0,0,6.436-4.578,6.8,6.8,0,0,0-4.21-8.648h0a6.8,6.8,0,0,0-2.228-.376Z" transform="translate(-1226.333 -334.662)" fill="#003b6b"/>
  </g>
</svg>
