<svg xmlns="http://www.w3.org/2000/svg" width="27" height="18" viewBox="0 0 27 18">
  <path id="Icon_awesome-ticket-alt" data-name="Icon awesome-ticket-alt" d="M6,7.5H21v9H6ZM24.75,12A2.25,2.25,0,0,0,27,14.25v4.5A2.25,2.25,0,0,1,24.75,21H2.25A2.25,2.25,0,0,1,0,18.75v-4.5a2.25,2.25,0,0,0,0-4.5V5.25A2.25,2.25,0,0,1,2.25,3h22.5A2.25,2.25,0,0,1,27,5.25v4.5A2.25,2.25,0,0,0,24.75,12ZM22.5,7.125A1.125,1.125,0,0,0,21.375,6H5.625A1.125,1.125,0,0,0,4.5,7.125v9.75A1.125,1.125,0,0,0,5.625,18h15.75A1.125,1.125,0,0,0,22.5,16.875Z" transform="translate(0 -3)" fill="#4bb3cc"/>
</svg>
