<svg id="bear_student" data-name="bear student" xmlns="http://www.w3.org/2000/svg" width="31.057" height="26.226" viewBox="0 0 31.057 26.226">
  <path id="bear_student_path_566" data-name="bear student path 566" d="M8.625,10.272c-1.38.69-1.96.283-2.678-1.063s-.69-3.451.09-3.823c.621-.317,3.34-.283,4.051,1.063A3.012,3.012,0,0,1,8.625,10.272Z" transform="translate(-1.682 -1.618)" fill="#4bb3cc"/>
  <path id="bear_student_path_567" data-name="bear student path 567" d="M34.167,10.272c1.38.69,1.96.283,2.678-1.063s.69-3.451-.09-3.823c-.621-.317-3.34-.283-4.051,1.063A3.012,3.012,0,0,0,34.167,10.272Z" transform="translate(-10.052 -1.618)" fill="#4bb3cc"/>
  <path id="bear_student_path_568" data-name="bear student path 568" d="M15.529,0C6.95,0,0,11.567,0,25.826v.4H31.057v-.4C31.057,11.567,24.107,0,15.529,0ZM6.557,17.944l-.69-4.831L14.838,20.7l-5.521-.69v-2.07Zm8.972,6.211a.69.69,0,1,1,.69-.69A.69.69,0,0,1,15.529,24.156Zm9.662-11.043-.69,4.831H21.74v2.07l-5.521.69Zm.38,10.352H20.739a.173.173,0,1,1,0-.345H25.57a.173.173,0,1,1,0,.345Zm0-.69H20.739a.173.173,0,1,1,0-.345H25.57a.173.173,0,1,1,0,.345Z" fill="#4bb3cc"/>
</svg>
