<svg xmlns="http://www.w3.org/2000/svg" width="25.254" height="20.719" viewBox="0 0 25.254 20.719">
  <g id="Group_157" data-name="Group 157" transform="translate(-1004 -900.5)">
    <path id="Icon_material-visibility" data-name="Icon material-visibility" d="M14.127,6.75A13.576,13.576,0,0,0,1.5,15.359a13.564,13.564,0,0,0,25.254,0A13.576,13.576,0,0,0,14.127,6.75Zm0,14.349a5.74,5.74,0,1,1,5.74-5.74A5.742,5.742,0,0,1,14.127,21.1Zm0-9.183a3.444,3.444,0,1,0,3.444,3.444A3.439,3.439,0,0,0,14.127,11.916Z" transform="translate(1002.5 897.25)" fill="#4bb3cc"/>
    <g id="Group_142" data-name="Group 142" transform="translate(-0.457)">
      <line id="Line_18" data-name="Line 18" y1="4" transform="translate(1016.906 901.5)" fill="none" stroke="#4bb3cc" stroke-linecap="round" stroke-width="2"/>
      <line id="Line_19" data-name="Line 19" x1="1.449" y1="3.01" transform="translate(1008.457 903.49)" fill="none" stroke="#4bb3cc" stroke-linecap="round" stroke-width="2"/>
      <line id="Line_20" data-name="Line 20" y1="3.01" x2="1.551" transform="translate(1023.906 903.49)" fill="none" stroke="#4bb3cc" stroke-linecap="round" stroke-width="2"/>
    </g>
  </g>
</svg>
