<svg xmlns="http://www.w3.org/2000/svg" width="25.225" height="27.118" viewBox="0 0 25.225 27.118">
  <g id="カレンダーのフリーアイコン18" transform="translate(-17.866)">
    <path id="Path_560" data-name="Path 560" d="M102.345,4.73a.91.91,0,0,0,.91-.909V.909a.91.91,0,0,0-1.819,0V3.82A.91.91,0,0,0,102.345,4.73Z" transform="translate(-79.143 0)" fill="#003b6b"/>
    <path id="Path_561" data-name="Path 561" d="M239.726,4.73a.91.91,0,0,0,.91-.909V.909a.91.91,0,0,0-1.819,0V3.82A.91.91,0,0,0,239.726,4.73Z" transform="translate(-209.248 0)" fill="#003b6b"/>
    <path id="Path_562" data-name="Path 562" d="M377.106,4.73a.91.91,0,0,0,.91-.909V.909a.91.91,0,0,0-1.82,0V3.82A.91.91,0,0,0,377.106,4.73Z" transform="translate(-339.351 0)" fill="#003b6b"/>
    <path id="Path_563" data-name="Path 563" d="M39.535,44.9h-.144v1.442a1.637,1.637,0,0,1-3.275,0V44.9h-4v1.442a1.637,1.637,0,0,1-3.275,0V44.9h-4v1.442a1.637,1.637,0,0,1-3.275,0V44.9h-.143a3.556,3.556,0,0,0-3.556,3.556V66.083a3.556,3.556,0,0,0,3.556,3.556H39.535a3.556,3.556,0,0,0,3.556-3.556V48.455A3.556,3.556,0,0,0,39.535,44.9ZM40.8,65.813a1.536,1.536,0,0,1-1.534,1.534H21.692a1.536,1.536,0,0,1-1.534-1.534V52.61H40.8v13.2Z" transform="translate(0 -42.521)" fill="#003b6b"/>
  </g>
</svg>
