<svg xmlns="http://www.w3.org/2000/svg" width="16.363" height="16.333" viewBox="0 0 16.363 16.333">
  <g id="edit_pen" data-name="edit pen" transform="translate(0 -0.48)">
    <path id="Path_590" data-name="Path 590" d="M5.293,55.471l.059-.059,6.224-6.224.065-.065.065-.065,3.3-3.3a0,0,0,0,0,0,0l-3.681-3.681h0l-3.3,3.3-.065.065-.065.065L1.611,51.788h0L0,57.08a0,0,0,0,0,0,0L5.214,55.5Zm-4.119.435.8-2.642a0,0,0,0,1,0,0L3.818,55.1a0,0,0,0,1,0,0l-2.642.8A0,0,0,0,1,1.174,55.906Z" transform="translate(0 -40.269)" fill="#003b6b"/>
    <path id="Path_591" data-name="Path 591" d="M387.952,3.8a1.055,1.055,0,0,0,0-1.488L386.425.787a1.055,1.055,0,0,0-1.488,0l-.763.763a0,0,0,0,0,0,0l3.013,3.013h0Z" transform="translate(-371.896 0)" fill="#003b6b"/>
  </g>
</svg>
