<svg xmlns="http://www.w3.org/2000/svg" width="19.79" height="19.79" viewBox="0 0 19.79 19.79">
  <g id="Group_59" data-name="Group 59" transform="translate(0 0)">
    <path id="Path_5471" data-name="Path 5471" d="M1131.6,1677.049a9.9,9.9,0,1,0,0,13.994A9.864,9.864,0,0,0,1131.6,1677.049Zm-1.093,12.9a8.349,8.349,0,1,1,0-11.806h0a8.352,8.352,0,0,1,0,11.807Z" transform="translate(-1114.713 -1674.151)" fill="#f5f5f5"/>
    <path id="Path_5472" data-name="Path 5472" d="M1128.967,1681.182a1.446,1.446,0,1,0,1.446,1.446A1.446,1.446,0,0,0,1128.967,1681.182Z" transform="translate(-1119.072 -1676.544)" fill="#f5f5f5"/>
    <rect id="Rectangle_54" data-name="Rectangle 54" width="2.642" height="6.529" rx="0.959" transform="translate(8.574 8.623)" fill="#f5f5f5"/>
  </g>
</svg>
