<svg xmlns="http://www.w3.org/2000/svg" width="64" height="48.231" viewBox="0 0 64 48.231">
  <g id="Group_160" data-name="Group 160" transform="translate(-263.226 -474.876)">
    <g id="Group_61" data-name="Group 61" transform="translate(273.687 651.057)">
      <path id="Path_9146" data-name="Path 9146" d="M97.432,1236.958a44.181,44.181,0,0,1-.033,4.538,5.335,5.335,0,0,0,1.338,3.964H94.571c.172-.453.206-.984.471-1.151.71-.446.655-1.067.652-1.728-.008-1.948.02-3.9-.016-5.844a1.108,1.108,0,0,1,.777-1.191c6.089-2.7,12.164-5.441,18.255-8.141a1.669,1.669,0,0,1,1.2-.07c6.3,2.8,12.584,5.628,19.039,8.528-.379.268-.648.473-.931.656-2.28,1.481-4.552,2.973-6.852,4.423a1.371,1.371,0,0,0-.706,1.284,48.643,48.643,0,0,1-.3,6.114,10.933,10.933,0,0,1-21.666-.722c-.177-1.8-.122-3.621-.2-5.432-.013-.309-.045-.763-.242-.9C101.948,1239.87,99.807,1238.5,97.432,1236.958Zm11.7,8.845c-.456.062-1.208.195-1.966.258-.8.068-.927.483-.852,1.2a9.1,9.1,0,0,0,18.153-.2c.009-.605-.164-.885-.778-1a11.173,11.173,0,0,0-7.8,1.181,1.226,1.226,0,0,1-1.035,0A11.418,11.418,0,0,0,109.133,1245.8Z" transform="translate(-96.371 -1403.434)" fill="#83c3d5"/>
      <path id="Path_9147" data-name="Path 9147" d="M94.529,1276.594h3.838c-.077,1.148.558,2.486-.551,3.219a2.971,2.971,0,0,1-2.579.063C93.983,1279.178,94.633,1277.787,94.529,1276.594Z" transform="translate(-94.451 -1428.11)" fill="#83c3d5"/>
    </g>
    <text id="就讀_畢業學校" data-name="就讀/畢業學校" transform="translate(295.226 521.107)" fill="#83c3d5" font-size="10" font-family="GenSenRoundedTW-R, GenSenRounded TW"><tspan x="-31.96" y="0">就讀/畢業學校</tspan></text>
  </g>
</svg>
