<svg xmlns="http://www.w3.org/2000/svg" width="50.173" height="48" viewBox="0 0 50.173 48">
  <g id="star" transform="translate(-0.001 -11.089)">
    <path id="Path_587" data-name="Path 587" d="M50.032,29.212a2.9,2.9,0,0,0-2.628-2l-14.5-.655L27.8,12.969a2.9,2.9,0,0,0-5.43,0l-5.1,13.586-14.5.655a2.9,2.9,0,0,0-1.679,5.165l11.343,9.052L8.579,55.418a2.9,2.9,0,0,0,4.394,3.191l12.114-7.991L37.2,58.61a2.9,2.9,0,0,0,4.394-3.191L37.739,41.427l11.343-9.052A2.9,2.9,0,0,0,50.032,29.212Z" transform="translate(0)" fill="#f2d60f"/>
  </g>
</svg>
